<svg width="239" height="85" viewBox="0 0 239 85" fill="none" xmlns="http://www.w3.org/2000/svg">
<g clip-path="url(#clip0_71_163)">
<path fill-rule="evenodd" clip-rule="evenodd" d="M142.935 18.0356C142.781 19.9231 142.46 21.7949 142.196 23.6726C141.696 27.2334 141.22 30.7981 140.665 34.3511C140.298 36.7064 139.486 37.4005 137.171 37.4674C135.538 37.5125 133.903 37.4772 132.269 37.4655C132.083 37.4634 131.899 37.3768 131.464 37.265C132.294 30.0923 133.433 22.9589 134.43 15.5464C136.699 15.5464 138.782 15.4677 140.856 15.5719C142.44 15.6506 143.068 16.4056 142.935 18.0356ZM162.237 10.7233C161.911 5.56208 159.633 2.69734 154.623 1.28563C151.449 0.391015 148.188 0.151143 144.911 0.147211C129.269 0.125583 113.628 0.123622 97.9867 0.123622C97.4903 0.123622 96.994 0.233729 96.4268 0.30058C95.0876 9.37255 92.8487 18.1044 89.824 26.6278C86.7842 35.1944 83.1214 43.4761 78.5058 51.3094C78.3616 51.2719 78.2174 51.2326 78.0732 51.1954C80.439 34.235 82.8051 17.2747 85.1861 0.204228C84.3485 0.166871 83.768 0.11772 83.187 0.119686C57.0117 0.141314 30.8362 0.166873 4.66032 0.196365C4.61791 0.196365 4.56804 0.269117 4.53543 0.316305C4.4991 0.371358 4.47849 0.434272 4.4121 0.577805C4.83588 1.02413 5.27479 1.50192 5.73215 1.96004C7.62599 3.8633 9.49215 5.79607 11.4394 7.64429C12.1878 8.35406 12.5109 9.05994 12.2538 10.0627C12.1411 10.5011 12.1601 10.973 12.0959 11.4272C10.9748 19.3332 9.83995 27.2352 8.72847 35.1434C6.76057 49.1427 4.80348 63.1419 2.85072 77.143C2.5917 79.001 2.38649 80.8649 2.14062 82.8529C8.46159 82.8529 14.5814 82.8529 20.9034 82.8529C22.4057 72.1214 23.8987 61.4589 25.4189 50.6015C31.3957 50.6015 37.188 50.6015 43.1173 50.6015C43.8691 45.1769 44.5927 39.9566 45.3546 34.4592C39.352 34.4592 33.6274 34.4592 27.6665 34.4592C28.5447 28.2518 29.3844 22.3199 30.2169 16.4331C33.2054 16.034 53.2705 16.1697 54.6687 16.5944C54.6291 17.2275 54.5898 17.8783 54.5481 18.531C54.2635 22.9727 53.8789 27.4124 53.7132 31.8579C53.3146 42.5756 54.1511 53.1929 56.625 63.6471C58.1685 70.169 60.3272 76.4726 63.7125 82.2982C64.2298 83.187 64.8477 84.0187 65.5015 84.9999C66.4225 84.475 67.2226 84.054 67.9866 83.5783C73.1715 80.3361 77.8942 76.5079 82.2416 72.2157C98.1024 56.561 107.644 37.5165 112.293 15.8688C112.948 12.8212 113.447 9.74023 114.041 6.55108C115.71 7.5676 116.727 8.70012 116.167 10.7351C115.873 11.8008 115.802 12.9274 115.648 14.0304C114.543 21.9365 113.444 29.8463 112.339 37.7545C111.351 44.8188 110.356 51.8834 109.365 58.948C108.283 66.6612 107.2 74.3728 106.13 82.0879C106.098 82.316 106.213 82.5639 106.273 82.8744C112.482 82.8744 118.612 82.8744 124.969 82.8744C126.431 72.6207 127.887 62.4183 129.364 52.0643C131.155 52.0643 132.779 52.0406 134.403 52.0701C136.244 52.1057 137.216 52.9137 137.439 54.7168C137.558 55.6821 137.548 56.6907 137.418 57.6541C136.605 63.6864 135.737 69.7108 134.895 75.7392C134.571 78.0573 134.268 80.3794 133.937 82.8409C140.307 82.8409 146.487 82.8409 152.79 82.8409C152.919 82.1293 153.053 81.4982 153.145 80.8631C154.021 74.7736 154.952 68.6903 155.736 62.5894C156.169 59.2192 156.577 55.8197 156.589 52.43C156.605 47.8743 154.675 45.6173 150.324 44.3372C150.015 44.2448 149.696 44.184 149.382 44.1091C149.351 44.0265 149.321 43.942 149.29 43.8594C149.791 43.7298 150.285 43.5627 150.793 43.478C154.881 42.7977 157.467 40.3951 158.773 36.5236C159.024 35.7823 159.319 35.039 159.45 34.2725C160.104 30.4698 160.768 26.6671 161.316 22.8488C161.893 18.8319 162.494 14.811 162.237 10.7233Z" fill="white"/>
<path fill-rule="evenodd" clip-rule="evenodd" d="M219.131 52.2434C215.959 52.2434 212.926 52.2434 209.668 52.2434C212.845 40.2948 215.995 28.4426 219.145 16.5905C219.329 16.5964 219.514 16.6003 219.699 16.6042C219.51 28.4367 219.322 40.2674 219.131 52.2434ZM197.492 0.522816C199.434 2.46934 201.255 4.43158 203.234 6.2228C204.413 7.28846 204.611 8.2696 204.173 9.79928C197.512 33.1378 190.916 56.4982 184.31 79.8546C184.048 80.7787 183.84 81.7203 183.565 82.8235C189.918 82.8235 196.092 82.8235 202.412 82.8235C203.643 78.2029 204.868 73.6156 206.074 69.0915C210.186 69.0915 214.084 69.0915 218.073 69.0915C218.073 73.7062 218.073 78.2008 218.073 82.8275C224.262 82.8275 230.383 82.8275 236.644 82.8275C237.149 78.0061 236.683 1.8146 236.159 0.223952C231.306 -0.192879 199.012 0.00964175 197.492 0.522816Z" fill="white"/>
<path fill-rule="evenodd" clip-rule="evenodd" d="M161.829 0.241699C162.392 0.878743 162.746 1.3172 163.14 1.71437C165.03 3.6196 166.887 5.5622 168.845 7.39466C169.802 8.29126 170.096 9.15833 169.876 10.4855C169.201 14.5496 168.694 18.6413 168.128 22.7231C166.897 31.6004 165.678 40.4797 164.437 49.355C163.058 59.2017 161.66 69.0463 160.277 78.8931C160.097 80.171 159.967 81.455 159.8 82.8567C166.126 82.8567 172.248 82.8567 178.564 82.8567C182.431 55.1985 186.266 27.7682 190.115 0.241699C180.6 0.241699 171.363 0.241699 161.829 0.241699Z" fill="white"/>
</g>
<defs>
<clipPath id="clip0_71_163">
<rect width="239" height="85" fill="white"/>
</clipPath>
</defs>
</svg>
